<svg width="97" height="30" viewBox="0 0 97 30" fill="none" xmlns="http://www.w3.org/2000/svg">
<path d="M0.68 28.6C2.4 28.6 3.2 26.64 3.2 23.8V6.2C3.2 3.36 2.4 1.4 0.68 1.4C0.6 1.4 0.52 1.32 0.44 1.2V0.999998H8.72C12.44 1.2 16.04 2.96 16.04 7C16.04 11.92 11.32 12.92 8.2 14.44C8.88 14.24 9.56 14.12 10.24 14.12C12.84 14.12 15.4 15.6 15.4 18.56C15.4 21.96 11.36 26.28 17.56 27.24L16.6 29.76C9.36 27.52 14.04 23.96 14.04 20.4C14.04 17.16 10.96 15.68 8.52 15.68C7.52 15.68 6.6 15.96 6 16.44V23.8C6 26.64 6.76 28.6 8.48 28.6C8.6 28.6 8.68 28.68 8.72 28.8V29H0.44V28.8C0.48 28.68 0.56 28.6 0.68 28.6ZM6 6.2V15.04C8.12 12.8 13.04 12.56 13.04 7C13.04 3.96 11.72 1.88 8.56 1.56H8.48C6.04 1.56 6 3.44 6 6.2ZM24.0088 22.04C24.0088 16.72 20.1288 11.64 20.1288 6.32C20.1288 2.4 22.7688 0.159999 25.7688 0.159999C26.4088 0.159999 27.0888 0.199999 27.7288 0.479998C28.2487 0.639998 28.9288 0.999998 30.7288 0.999998H35.2088V1.2C35.1688 1.32 35.0888 1.4 34.9688 1.4C33.2488 1.4 32.4888 3.36 32.4888 6.2V23.8C32.4888 26.64 33.2488 28.6 34.9688 28.6C35.0888 28.6 35.1688 28.68 35.2088 28.8V29H26.9288V28.8C26.9688 28.68 27.0488 28.6 27.1688 28.6C28.8888 28.6 29.6888 26.64 29.6888 23.8V11.4C29.0888 10.8 28.5287 10.52 27.5288 10.52C25.5288 10.52 23.4888 13.56 23.4888 15.72C24.3288 18.28 25.1288 20.68 25.1288 22.92C25.1288 26.68 21.8888 29.2 18.1688 29.32V26.44C20.7288 26.44 24.0088 25.56 24.0088 22.04ZM23.1288 14.64C23.6488 12.08 25.3688 9 27.4888 9C28.4488 9 29.0888 9.56 29.6888 10.24V3.4C28.4488 2.16 27.0888 1.6 25.8488 1.6C23.4488 1.6 21.4488 3.8 21.4488 7.52C21.4488 9.64 22.2088 12.08 23.1288 14.64ZM36.1041 1.2V0.999998H40.7441L47.9441 19.4L54.7841 0.999998H59.2241V1.2C59.1841 1.32 59.1041 1.4 58.9841 1.4C57.2641 1.4 56.5041 3.36 56.5041 6.2V22.84C56.5041 23.12 56.5041 23.44 56.4641 23.8C56.4241 24.4 56.3041 25.08 56.0241 25.84C55.4641 27.24 52.8641 29.32 50.7441 29.32C49.3441 29.32 47.4241 28.04 45.8241 28.04C45.2241 28.04 44.7041 28.24 44.3041 28.64C44.3441 28.2 44.4641 27.76 44.6241 27.4C44.9441 26.8 45.4641 26.2 46.3841 26.2C48.1841 26.2 50.7041 28.28 52.3841 28.28C53.6641 28.28 53.7041 26.96 53.7041 25.84V5.72L46.9041 23.96H46.6241L39.6641 6.28V23.8C39.6641 26.64 40.4241 28.6 42.1441 28.6C42.2641 28.6 42.3441 28.68 42.3841 28.8V29H36.1041V28.8C36.1441 28.68 36.2241 28.6 36.3441 28.6C38.0641 28.6 38.8641 26.64 38.8641 23.8V6.2C38.8641 3.36 38.0641 1.4 36.3441 1.4C36.2641 1.4 36.1841 1.32 36.1041 1.2ZM68.4069 28.72C72.4069 28.72 74.4869 22.72 74.3669 19.04L76.6069 19.24C76.1669 24 73.4069 29.24 68.4069 29.24C55.8469 29.24 56.6469 0.759999 68.4069 0.759999C71.8869 0.759999 74.4069 3.16 75.4869 6.52L73.4069 7.2C73.4069 6.92 72.2469 1.28 68.4069 1.28C62.3269 1.28 60.9269 16.88 63.9669 24.56C63.1669 19 66.3269 10.28 72.2469 10.28C72.8469 10.28 73.4469 10.4 74.0869 10.56L73.5669 12.52C73.1669 12.4 72.7269 12.36 72.2469 12.36C66.1269 12.36 63.2069 23.48 65.0069 26.56C65.9269 27.96 67.0069 28.72 68.4069 28.72ZM77.555 28.6C79.275 28.6 80.075 26.64 80.075 23.8V6.2C80.075 3.36 79.275 1.4 77.555 1.4C77.475 1.4 77.395 1.32 77.315 1.2V0.999998H82.315C84.915 6.48 90.835 12 93.075 16.64V6.2C93.075 3.36 92.315 1.4 90.595 1.4C90.515 1.4 90.435 1.32 90.355 1.2V0.999998H96.635V1.2C96.595 1.32 96.515 1.4 96.395 1.4C94.675 1.4 93.875 3.36 93.875 6.2V23.8C94.515 27.6 95.395 28.6 96.355 28.6C96.475 28.6 96.555 28.68 96.595 28.8V29H90.315V28.8C90.355 28.68 90.435 28.6 90.555 28.6C92.195 28.6 92.955 26.8 93.075 24.2C92.715 19.56 85.075 11.44 80.875 5.04V23.8C80.875 26.64 81.635 28.6 83.355 28.6C83.475 28.6 83.555 28.68 83.595 28.8V29H77.315V28.8C77.355 28.68 77.435 28.6 77.555 28.6Z" fill="white"/>
</svg>
