<svg width="212" height="95" viewBox="0 0 212 95" fill="none" xmlns="http://www.w3.org/2000/svg">
<path d="M27.34 24.53L26.04 32.72C24.09 33.63 21.75 34.02 19.67 34.02C0.56 34.02 1.6 0.0899978 26.43 0.0899978C36.96 0.0899978 48.01 8.67 48.01 22.06C48.01 50.27 14.08 72.37 11.48 89.92C19.67 85.37 26.82 82.9 34.23 82.9C39.43 82.9 44.89 84.33 50.48 87.06L49.18 94.34C42.03 90.83 33.97 88.36 26.04 88.36C20.84 88.36 15.9 89.4 11.35 92H5.24C5.24 64.83 41.25 43.64 41.25 18.68C41.25 8.67 36.05 1.78 26.3 1.78C5.11 1.78 7.45 27 19.8 27C23.31 27 26.17 25.44 27.34 24.53ZM76.7481 92.78C41.5181 92.78 41.5181 0.219996 76.7481 0.219996C111.978 0.219996 111.978 92.78 76.7481 92.78ZM76.7481 1.91C54.3881 1.91 54.3881 91.09 76.7481 91.09C99.1081 91.09 99.1081 1.91 76.7481 1.91ZM128.979 24.53L127.679 32.72C125.729 33.63 123.389 34.02 121.309 34.02C102.199 34.02 103.239 0.0899978 128.069 0.0899978C138.599 0.0899978 149.649 8.67 149.649 22.06C149.649 50.27 115.719 72.37 113.119 89.92C121.309 85.37 128.459 82.9 135.869 82.9C141.069 82.9 146.529 84.33 152.119 87.06L150.819 94.34C143.669 90.83 135.609 88.36 127.679 88.36C122.479 88.36 117.539 89.4 112.989 92H106.879C106.879 64.83 142.889 43.64 142.889 18.68C142.889 8.67 137.689 1.78 127.939 1.78C106.749 1.78 109.089 27 121.439 27C124.949 27 127.809 25.44 128.979 24.53ZM160.295 36.62L158.735 35.84L163.545 1.91H165.625C166.535 2.81999 167.965 3.33999 169.655 3.33999C173.685 3.33999 178.625 0.869995 183.435 0.869995C188.245 0.869995 192.665 3.21 195.655 12.05H194.875C192.925 8.02 190.455 6.97999 187.725 6.97999C183.955 6.97999 179.665 9.06 175.115 9.06C171.865 9.06 168.485 8.02 165.235 4.25L161.335 31.68C163.935 28.69 167.315 27.13 171.345 27.13C211.515 27.13 208.395 93.82 174.335 93.82C149.375 93.82 149.505 61.58 157.825 51.7L166.015 53.26C156.005 65.74 156.265 92.13 174.335 92.13C195.655 92.13 197.995 28.82 171.345 28.82C166.015 28.82 162.375 31.94 160.295 36.62Z" fill="white"/>
</svg>
