<svg width="596" height="138" viewBox="0 0 596 138" fill="none" xmlns="http://www.w3.org/2000/svg">
<path d="M38.36 104L15.4 24.2C12.74 14.82 7.84 7.39999 1.68 7.39999C1.4 7.39999 1.12 7.12 0.84 6.69999V5.99999H29.96V6.69999C29.82 7.12 29.54 7.39999 29.12 7.39999C22.82 7.39999 22.54 14.82 25.2 24.2L44.24 90.28L70.14 17.2C71.26 13.42 71.82 8.94 67.34 8.94C62.86 8.94 53.34 15.24 46.62 15.24C42 15.24 39.9 12.86 38.92 10.2C38.36 8.65999 38.08 6.98 38.22 5.16C39.48 6.42 41.44 7.12 43.82 7.12C50.12 7.12 59.22 3.06 65.52 3.06C75.18 3.06 75.46 9.64 72.52 17.48L41.58 104H38.36ZM93.2892 54.16V48.28C93.2892 45.48 94.1292 38.06 90.7692 38.06C86.7092 38.06 80.5492 45.48 76.0692 45.48C73.1292 45.48 69.3492 41.56 69.3492 34.98L70.0492 34.42C72.1492 37.08 74.8092 37.92 77.6092 37.92C82.5092 37.92 88.1092 35.54 92.7292 35.54C101.829 35.54 102.809 45.2 102.809 49.26V93.5C102.809 95.18 102.109 100.36 104.209 100.36C105.749 100.36 107.009 98.26 107.989 96.72L109.249 97.42C108.129 99.94 104.629 104.56 101.829 104.56C93.4292 104.56 93.2892 96.16 93.2892 93.36V93.22C90.6292 99.24 86.8492 104.56 80.8292 104.7C55.2092 105.26 53.5292 61.44 93.2892 54.16ZM80.8292 102.88C87.5492 102.88 91.0492 95.04 93.2892 88.32V55.84C65.8492 62 70.7492 102.88 80.8292 102.88ZM112.975 85.94V20.56C112.975 9.91999 110.875 7.54 104.855 7.54C104.715 7.54 104.435 7.25999 104.155 6.84V6.13999L122.495 0.679995V85.94C122.495 95.6 124.595 102.6 130.615 102.6C130.895 102.6 131.175 102.88 131.315 103.3V104H104.155V103.3C104.295 102.88 104.575 102.6 104.855 102.6C110.875 102.6 112.975 95.6 112.975 85.94ZM166.303 90L167.983 90.98C164.343 97.14 158.043 104.98 149.923 104.98C115.622 104.98 128.643 35.96 156.643 35.96C178.483 35.96 167.003 74.74 139.143 83.84C141.383 93.36 145.723 100.22 152.863 100.22C157.483 100.22 162.943 97.14 166.303 90ZM138.723 82.02C165.883 72.64 165.183 38.76 153.283 38.76C139.983 38.76 135.363 63.68 138.723 82.02ZM167.15 102.6C173.31 102.6 175.41 95.74 175.41 85.8V54.86C175.41 44.22 173.31 41.84 167.29 41.84C167.15 41.84 166.87 41.56 166.59 41.14V40.44L184.93 34.98V51.36C187.17 43.52 191.93 35.82 199.49 35.82C208.59 35.82 216.15 41.7 216.15 53.18V85.94C216.15 95.6 218.25 102.6 224.27 102.6C224.55 102.6 224.83 102.88 224.97 103.3V104H197.81V103.3C197.95 102.88 198.23 102.6 198.51 102.6C204.53 102.6 206.63 95.6 206.63 85.94V56.12C206.63 48.98 206.21 37.64 199.49 37.64C190.67 37.64 186.05 50.66 184.93 59.62V85.8C184.93 95.74 187.03 102.6 193.05 102.6C193.33 102.6 193.61 102.88 193.75 103.3V104H166.45V103.3C166.59 102.88 166.87 102.6 167.15 102.6ZM227.746 38.76H217.246V36.66H227.746C234.886 36.66 235.446 29.8 235.446 25.74H237.266V36.66H248.746V38.76H237.266V93.5C237.266 95.18 237.406 100.36 242.866 100.36C246.646 100.36 249.586 95.18 250.566 93.78L251.826 94.48C250.706 97.14 244.686 104.56 239.086 104.56C228.166 104.56 227.746 96.16 227.746 93.36V38.76ZM253.903 21.12C253.903 17.06 256.563 14.4 260.623 14.4C264.543 14.4 267.203 17.06 267.203 21.12C267.203 25.18 264.543 27.84 260.623 27.84C256.563 27.84 253.903 25.18 253.903 21.12ZM256.703 85.8V54.86C256.703 44.22 254.603 41.84 248.583 41.84C248.443 41.84 248.163 41.56 247.883 41.14V40.44L266.223 34.98V85.8C266.223 95.74 268.323 102.6 274.343 102.6C274.623 102.6 274.903 102.88 275.043 103.3V104H247.743V103.3C247.883 102.88 248.163 102.6 248.443 102.6C254.603 102.6 256.703 95.74 256.703 85.8ZM271.795 102.6C277.955 102.6 280.055 95.74 280.055 85.8V54.86C280.055 44.22 277.955 41.84 271.935 41.84C271.795 41.84 271.515 41.56 271.235 41.14V40.44L289.575 34.98V51.36C291.815 43.52 296.575 35.82 304.135 35.82C313.235 35.82 320.795 41.7 320.795 53.18V85.94C320.795 95.6 322.895 102.6 328.915 102.6C329.195 102.6 329.475 102.88 329.615 103.3V104H302.455V103.3C302.595 102.88 302.875 102.6 303.155 102.6C309.175 102.6 311.275 95.6 311.275 85.94V56.12C311.275 48.98 310.855 37.64 304.135 37.64C295.315 37.64 290.695 50.66 289.575 59.62V85.8C289.575 95.74 291.675 102.6 297.695 102.6C297.975 102.6 298.255 102.88 298.395 103.3V104H271.095V103.3C271.235 102.88 271.515 102.6 271.795 102.6ZM363.041 90L364.721 90.98C361.081 97.14 354.781 104.98 346.661 104.98C312.361 104.98 325.381 35.96 353.381 35.96C375.221 35.96 363.741 74.74 335.881 83.84C338.121 93.36 342.461 100.22 349.601 100.22C354.221 100.22 359.681 97.14 363.041 90ZM335.461 82.02C362.621 72.64 361.921 38.76 350.021 38.76C336.721 38.76 332.101 63.68 335.461 82.02ZM384.468 5.58C383.628 8.84666 382.555 12.3933 381.248 16.22C379.942 20.0467 378.495 23.8733 376.908 27.7C375.415 31.4333 373.922 34.98 372.428 38.34H363.328C363.982 35.7267 364.635 32.9267 365.288 29.94C366.035 26.9533 366.688 23.9667 367.248 20.98C367.902 17.9 368.462 14.9133 368.928 12.02C369.488 9.12666 369.955 6.46666 370.328 4.03999H383.488L384.468 5.58ZM422.381 35.54L422.941 35.82C422.521 38.62 419.581 46.04 413.421 46.04C407.401 46.04 404.881 37.22 397.461 37.22C392.561 37.22 391.301 39.32 391.301 43.66C391.301 56.54 426.301 69.7 426.301 87.9C426.301 97.98 417.761 104.28 409.921 104.28C399.841 104.28 393.821 100.92 388.921 100.92C386.541 100.92 384.581 101.62 382.481 104L381.921 103.72C382.621 100.78 385.141 93.36 391.441 93.36C398.441 93.36 402.081 102.32 410.341 102.32C415.941 102.32 419.021 98.12 419.021 92.52C419.021 77.26 385.981 69.84 385.981 47.02C385.981 40.3 390.881 35.54 397.741 35.54C407.681 35.54 412.441 39.32 416.501 39.32C418.601 39.32 420.281 38.34 422.381 35.54ZM455.208 85.8V24.2C455.208 14.26 452.408 7.39999 446.388 7.39999C446.108 7.39999 445.828 7.12 445.548 6.69999V5.99999H474.528L474.808 6.13999C517.788 8.94 516.668 102.32 474.528 104H445.548V103.3C445.688 102.88 445.968 102.6 446.388 102.6C452.408 102.6 455.208 95.74 455.208 85.8ZM465.008 24.2V85.8C465.008 94.2 465.008 100.5 470.468 102.18H471.448C503.788 102.18 503.788 7.81999 471.168 7.81999H470.468C465.008 9.5 465.008 15.8 465.008 24.2ZM536.203 54.16V48.28C536.203 45.48 537.043 38.06 533.683 38.06C529.623 38.06 523.463 45.48 518.983 45.48C516.043 45.48 512.263 41.56 512.263 34.98L512.963 34.42C515.063 37.08 517.723 37.92 520.523 37.92C525.423 37.92 531.023 35.54 535.643 35.54C544.743 35.54 545.723 45.2 545.723 49.26V93.5C545.723 95.18 545.023 100.36 547.123 100.36C548.663 100.36 549.923 98.26 550.903 96.72L552.163 97.42C551.043 99.94 547.543 104.56 544.743 104.56C536.343 104.56 536.203 96.16 536.203 93.36V93.22C533.543 99.24 529.763 104.56 523.743 104.7C498.123 105.26 496.443 61.44 536.203 54.16ZM523.743 102.88C530.463 102.88 533.963 95.04 536.203 88.32V55.84C508.763 62 513.663 102.88 523.743 102.88ZM570.381 104L556.101 54.86C553.441 45.48 550.641 38.06 544.481 38.06C544.201 38.06 543.921 37.78 543.641 37.36V36.66H568.701V37.36C568.561 37.78 568.281 38.06 567.861 38.06C561.701 38.06 563.241 45.48 565.901 54.86L576.121 90.14L590.821 48.56C591.941 44.78 592.501 40.3 588.021 40.3C585.221 40.3 583.401 44.08 578.501 44.08C574.721 44.08 573.181 42.12 572.481 40.02C572.061 38.76 571.781 37.5 571.921 35.96C573.181 36.94 574.721 37.5 576.401 37.5C580.741 37.5 585.221 34.42 588.861 34.42C595.581 34.42 596.001 41 593.201 48.84L573.601 104C569.121 116.32 562.681 137.04 548.401 137.04C540.141 137.04 536.221 132.56 531.321 132.56C529.641 132.56 529.081 132.98 527.541 134.24L527.121 133.82C527.821 129.2 531.881 124.16 535.241 124.16C541.121 124.16 549.101 130.74 554.701 130.74C563.241 130.74 569.121 110.86 571.361 104H570.381Z" fill="white"/>
</svg>
