<svg width="17" height="17" viewBox="0 0 17 17" fill="none" xmlns="http://www.w3.org/2000/svg">
<path d="M12.0947 0.704102H4.90468C2.58468 0.704102 0.704346 2.58477 0.704346 4.90443V12.0944C0.704346 14.4144 2.58501 16.2948 4.90501 16.2948H12.0943C14.4143 16.2948 16.295 14.4141 16.295 12.0941V4.90443C16.295 2.58443 14.4147 0.704102 12.0947 0.704102Z" stroke="#333333" stroke-width="0.91" stroke-miterlimit="10"/>
<path d="M8.49893 12.263C10.5774 12.263 12.2623 10.5781 12.2623 8.49966C12.2623 6.42123 10.5774 4.73633 8.49893 4.73633C6.4205 4.73633 4.7356 6.42123 4.7356 8.49966C4.7356 10.5781 6.4205 12.263 8.49893 12.263Z" stroke="#333333" stroke-width="0.91" stroke-miterlimit="10"/>
<path d="M12.9311 4.45736C13.2993 4.45736 13.5977 4.15888 13.5977 3.79069C13.5977 3.4225 13.2993 3.12402 12.9311 3.12402C12.5629 3.12402 12.2644 3.4225 12.2644 3.79069C12.2644 4.15888 12.5629 4.45736 12.9311 4.45736Z" fill="#333333"/>
</svg>
