<svg xmlns="http://www.w3.org/2000/svg" version="1.1" viewBox="0 0 539 557" id="heart-mask">
<image xmlns:xlink="http://www.w3.org/1999/xlink" href="/assets/images/top/heart.svg" width="1000" height="600" mask="url(#clipmask)"></image>
<mask id="clipmask" maskUnits="objectBoundingBox">
  <g id="_レイヤー_1" data-name="レイヤー_1">
    <path class="st1" d="M250.7,552.9c-72,0-143.6-39.9-179.7-102.9-28.5-49.7-56.3-95.7-64.8-153.5-8.8-59.4,2.4-118.6,37.2-167.7,33.3-46.9,69.4-87.8,124-110.5,35.2-14.6,112.2-28.6,139.6,8.8,8.7,11.8,26.2,51.2,12.8,65.4-8.6,9.1-12.8,0-7.7-14.1,7-19.2,61.6-28.1,61.6-28.1,0,0,38.3-5.1,62.4-1.3,18.6,3,30.2,6.5,46.2,14.2,25.9,12.5,45.2,41.6,51,69.2,8.1,38.4-3.6,66.2-19.3,104.6-11.8,28.8-41.2,68.2-41.2,68.2,0,0-27.6,41.9-45.5,60.8-37.7,39.8-79.2,68.9-126.5,96.1-52.8,30.3-111.5,50.5-167.5,74-19,8-38.7,13.2-58.7,17.9"/>
  </g>
  <g id="_レイヤー_2" data-name="レイヤー_2">
    <path class="st0" d="M279.6,554s-127.3,3-191.5-79C24.5,393.7-24.7,302.4,13.5,189.8,54.7,68,135.5,35.8,183.2,15.7s58.1-18.5,86.8-8.5c21.9,7.6,44.7,23.7,59.5,56.2,0,0,1.9,32.9-19.1,32.7-10.5-22,26.1-36,31.2-37.7s79.7-25.1,119.5-3.9c0,0,136.6,30.4,30,224C378.8,482.6,51.7,554.3,51.7,554.3"/>
  </g>
  </mask> 
</svg>