<svg width="539" height="557" viewBox="0 0 539 557" fill="none" xmlns="http://www.w3.org/2000/svg">
<path d="M250.731 552.863C178.742 552.863 107.163 512.981 71.0411 449.993C42.5186 400.256 14.7474 354.333 6.21612 296.539C-2.54662 237.178 8.65729 177.96 43.462 128.877C76.7345 81.9553 112.821 41.0376 167.426 18.334C202.593 3.71192 279.651 -10.2282 307.027 27.1433C315.685 38.9638 333.203 78.3412 319.821 92.5031C311.255 101.568 307.027 92.5031 312.144 78.4365C319.12 59.2625 373.7 50.3034 373.7 50.3034C373.7 50.3034 412.04 45.1562 436.108 49.0246C454.746 52.0204 466.343 55.5114 482.31 63.2333C508.203 75.7555 527.479 104.787 533.345 132.429C541.486 170.788 529.778 198.58 514.011 237.005C502.196 265.8 472.783 305.218 472.783 305.218C472.783 305.218 445.172 347.158 427.294 366.019C389.598 405.789 348.102 434.894 300.772 462.07C248.006 492.366 189.279 512.601 133.307 536.097C114.271 544.088 94.654 549.322 74.595 554" stroke="#FF0000" stroke-width="5.73756" stroke-linecap="round"/>
</svg>
